<?xml version="1.0" encoding="UTF-8"?> <svg xmlns="http://www.w3.org/2000/svg" width="180" height="39" viewBox="0 0 180 39" fill="none"> <path d="M12.6757 38.7519C12.1157 38.7514 11.5656 38.6039 11.0805 38.324C10.5953 38.0442 10.1922 37.6419 9.9114 37.1573L0.521935 20.9462C0.28389 20.5824 0.122529 20.1738 0.0477099 19.7455C-0.027109 19.3172 -0.0138142 18.8782 0.0867819 18.4552C0.187378 18.0322 0.373163 17.6341 0.632785 17.2854C0.892407 16.9366 1.22041 16.6444 1.59677 16.4267C1.97312 16.209 2.38991 16.0703 2.82167 16.0191C3.25344 15.9678 3.69111 16.0052 4.10795 16.1289C4.52479 16.2525 4.91204 16.4599 5.24604 16.7382C5.58004 17.0166 5.85378 17.3601 6.05052 17.7479L11.9903 27.9872L18.2957 10.2317C18.5161 9.61016 18.9233 9.07195 19.4615 8.69079C19.9997 8.30963 20.6426 8.10417 21.3021 8.10254C21.9526 8.10704 22.5862 8.30975 23.1184 8.68364C23.6507 9.05753 24.0563 9.58482 24.2812 10.1952L29.8463 25.4833L37.1568 2.27239C37.3534 1.62265 37.7515 1.05228 38.2937 0.64382C38.8358 0.23536 39.4939 0.00999182 40.1727 0.000324532C40.8514 -0.00934276 41.5156 0.197193 42.0692 0.590046C42.6228 0.982899 43.037 1.54169 43.252 2.18558L54.4782 34.3885C54.6165 34.7851 54.6753 35.205 54.6513 35.6244C54.6273 36.0437 54.521 36.4543 54.3383 36.8325C54.1557 37.2107 53.9003 37.5493 53.5868 37.8289C53.2733 38.1084 52.9078 38.3235 52.5112 38.4618C52.1146 38.6001 51.6946 38.6589 51.2753 38.6349C50.8559 38.6109 50.4454 38.5046 50.0672 38.3219C49.6889 38.1393 49.3504 37.8839 49.0708 37.5704C48.7913 37.2569 48.5762 36.8914 48.4379 36.4948L40.378 13.3798L33.104 36.4034C32.9033 37.0416 32.5074 37.6007 31.9723 38.0021C31.4371 38.4036 30.7895 38.6271 30.1207 38.6412C29.4518 38.6553 28.7954 38.4593 28.2437 38.0809C27.6921 37.7024 27.273 37.1605 27.0455 36.5314L21.325 20.7543L15.6913 36.6227C15.4856 37.2013 15.1177 37.7085 14.6316 38.0836C14.1455 38.4587 13.5616 38.686 12.9498 38.7382L12.6757 38.7519Z" fill="url(#paint0_linear_57_1)"></path> <path d="M70.0268 11.9177H73.8511V22.7602L81.7876 11.9177H85.4018V28.5492H81.5957V17.7433L73.6638 28.5537H70.0085L70.0268 11.9177Z" fill="#3A3A3A"></path> <path d="M101.366 28.5537V20.9051L97.5418 27.3018H95.9747L92.2417 20.864V28.5537H88.8926V15.7603H92.7672L96.8519 23.1485L101.202 15.7603H104.67L104.715 28.5537H101.366Z" fill="#3A3A3A"></path> <path d="M120.611 15.774V28.5674H116.906V18.8125H111.583V28.5537H107.895V15.7603L120.611 15.774Z" fill="#3A3A3A"></path> <path d="M137.101 15.774L131.326 29.3396C130.741 30.8109 130.016 31.8481 129.151 32.4512C128.232 33.0744 127.14 33.394 126.03 33.365C125.36 33.3638 124.694 33.259 124.056 33.0543C123.472 32.8846 122.93 32.5934 122.466 32.1999L123.837 29.5635C124.121 29.8147 124.447 30.0128 124.801 30.1484C125.152 30.2868 125.525 30.3596 125.902 30.3631C126.345 30.3836 126.781 30.2531 127.14 29.993C127.522 29.6604 127.816 29.2402 127.999 28.7685L128.05 28.6497L122.516 15.774H126.341L129.927 24.4553L133.542 15.774H137.101Z" fill="#3A3A3A"></path> <path d="M149.999 15.774V28.5675H146.276V18.8125H142.255L142.136 21.0559C142.11 22.4619 141.957 23.8626 141.679 25.2412C141.495 26.2026 141.071 27.1018 140.445 27.8547C140.142 28.1816 139.77 28.4378 139.356 28.6052C138.942 28.7726 138.497 28.847 138.051 28.8233C137.399 28.809 136.752 28.7139 136.123 28.5401L136.315 25.5016C136.566 25.529 136.749 25.5473 136.863 25.5473C137.106 25.562 137.348 25.5137 137.567 25.4073C137.785 25.3008 137.973 25.1397 138.111 24.9396C138.409 24.4728 138.6 23.9452 138.668 23.3953C138.764 22.7693 138.833 21.9423 138.883 20.9143L139.07 15.7832L149.999 15.774Z" fill="#3A3A3A"></path> <path d="M164.424 20.9873C164.871 21.3711 165.223 21.8527 165.454 22.3947C165.684 22.9367 165.787 23.5245 165.754 24.1126C165.784 24.7393 165.665 25.3643 165.407 25.9362C165.149 26.5081 164.759 27.0105 164.269 27.4023C163.277 28.1882 161.888 28.5766 160.097 28.5766L153.7 28.5537V15.7603H157.383V19.8451H160.613C162.264 19.8725 163.535 20.2532 164.424 20.9873ZM161.404 25.4925C161.601 25.3135 161.754 25.0922 161.853 24.8453C161.952 24.5984 161.994 24.3322 161.975 24.0669C161.999 23.8105 161.96 23.5522 161.863 23.3136C161.766 23.0751 161.613 22.8633 161.418 22.6962C160.927 22.3763 160.349 22.2166 159.763 22.2393L157.365 22.2164V25.922H159.763C160.344 25.9824 160.927 25.8298 161.404 25.4925Z" fill="#3A3A3A"></path> <path d="M170.588 27.9095C169.539 27.3819 168.659 26.5716 168.047 25.5701C167.446 24.5389 167.129 23.3667 167.129 22.173C167.129 20.9793 167.446 19.8071 168.047 18.7759C168.659 17.7744 169.539 16.9641 170.588 16.4365C171.72 15.8634 172.974 15.5734 174.243 15.5912C175.482 15.5562 176.709 15.8443 177.802 16.4274C178.783 16.9647 179.556 17.8136 180 18.8399L177.121 20.3796C176.859 19.8444 176.449 19.3951 175.94 19.0844C175.431 18.7737 174.844 18.6144 174.247 18.6251C173.804 18.6113 173.362 18.6885 172.95 18.8519C172.537 19.0154 172.162 19.2616 171.849 19.5755C171.522 19.9199 171.27 20.3273 171.106 20.7728C170.943 21.2182 170.872 21.6924 170.898 22.1661C170.872 22.6392 170.943 23.1125 171.107 23.5572C171.27 24.0019 171.523 24.4085 171.849 24.7522C172.162 25.0661 172.537 25.3123 172.95 25.4758C173.362 25.6392 173.804 25.7164 174.247 25.7026C174.844 25.7167 175.433 25.5588 175.942 25.2477C176.452 24.9366 176.861 24.4854 177.121 23.9481L180 25.5153C179.547 26.5309 178.776 27.3714 177.802 27.9095C176.72 28.4982 175.502 28.7928 174.27 28.7639C172.991 28.7834 171.727 28.4901 170.588 27.9095Z" fill="#3A3A3A"></path> <defs> <linearGradient id="paint0_linear_57_1" x1="0.0650264" y1="19.3973" x2="54.6564" y2="19.3973" gradientUnits="userSpaceOnUse"> <stop stop-color="#D1525D"></stop> <stop offset="1" stop-color="#6E368C"></stop> </linearGradient> </defs> </svg> 